# ThermaBuild 3D Architectural Model: Plan 3: 5 BHK Luxury Manor (1,240 sq.ft)
# Footprint: 12.8m x 9.0m | Built-up: 1240 sq.ft
g HouseShell
v -0.3000 0.0000 -0.3000
v 13.1000 0.0000 -0.3000
v 13.1000 0.1500 -0.3000
v -0.3000 0.1500 -0.3000
v -0.3000 0.0000 9.3000
v 13.1000 0.0000 9.3000
v 13.1000 0.1500 9.3000
v -0.3000 0.1500 9.3000
v 4.0000 0.1500 2.5000
v 8.8000 0.1500 2.5000
v 8.8000 0.1800 2.5000
v 4.0000 0.1800 2.5000
v 4.0000 0.1500 6.3000
v 8.8000 0.1500 6.3000
v 8.8000 0.1800 6.3000
v 4.0000 0.1800 6.3000
v 4.0000 0.1800 2.5000
v 8.8000 0.1800 2.5000
v 8.8000 3.0300 2.5000
v 4.0000 3.0300 2.5000
v 4.0000 0.1800 2.7000
v 8.8000 0.1800 2.7000
v 8.8000 3.0300 2.7000
v 4.0000 3.0300 2.7000
v 4.0000 0.1800 6.1000
v 8.8000 0.1800 6.1000
v 8.8000 3.0300 6.1000
v 4.0000 3.0300 6.1000
v 4.0000 0.1800 6.3000
v 8.8000 0.1800 6.3000
v 8.8000 3.0300 6.3000
v 4.0000 3.0300 6.3000
v 4.0000 0.1800 2.7000
v 4.2000 0.1800 2.7000
v 4.2000 3.0300 2.7000
v 4.0000 3.0300 2.7000
v 4.0000 0.1800 6.1000
v 4.2000 0.1800 6.1000
v 4.2000 3.0300 6.1000
v 4.0000 3.0300 6.1000
v 8.6000 0.1800 2.7000
v 8.8000 0.1800 2.7000
v 8.8000 3.0300 2.7000
v 8.6000 3.0300 2.7000
v 8.6000 0.1800 6.1000
v 8.8000 0.1800 6.1000
v 8.8000 3.0300 6.1000
v 8.6000 3.0300 6.1000
v 4.0000 0.1500 6.4000
v 8.8000 0.1500 6.4000
v 8.8000 0.1800 6.4000
v 4.0000 0.1800 6.4000
v 4.0000 0.1500 8.8000
v 8.8000 0.1500 8.8000
v 8.8000 0.1800 8.8000
v 4.0000 0.1800 8.8000
v 4.0000 0.1800 6.4000
v 8.8000 0.1800 6.4000
v 8.8000 3.0300 6.4000
v 4.0000 3.0300 6.4000
v 4.0000 0.1800 6.6000
v 8.8000 0.1800 6.6000
v 8.8000 3.0300 6.6000
v 4.0000 3.0300 6.6000
v 4.0000 0.1800 8.6000
v 8.8000 0.1800 8.6000
v 8.8000 3.0300 8.6000
v 4.0000 3.0300 8.6000
v 4.0000 0.1800 8.8000
v 8.8000 0.1800 8.8000
v 8.8000 3.0300 8.8000
v 4.0000 3.0300 8.8000
v 4.0000 0.1800 6.6000
v 4.2000 0.1800 6.6000
v 4.2000 3.0300 6.6000
v 4.0000 3.0300 6.6000
v 4.0000 0.1800 8.6000
v 4.2000 0.1800 8.6000
v 4.2000 3.0300 8.6000
v 4.0000 3.0300 8.6000
v 8.6000 0.1800 6.6000
v 8.8000 0.1800 6.6000
v 8.8000 3.0300 6.6000
v 8.6000 3.0300 6.6000
v 8.6000 0.1800 8.6000
v 8.8000 0.1800 8.6000
v 8.8000 3.0300 8.6000
v 8.6000 3.0300 8.6000
v 8.9000 0.1500 6.2000
v 12.6000 0.1500 6.2000
v 12.6000 0.1800 6.2000
v 8.9000 0.1800 6.2000
v 8.9000 0.1500 8.8000
v 12.6000 0.1500 8.8000
v 12.6000 0.1800 8.8000
v 8.9000 0.1800 8.8000
v 8.9000 0.1800 6.2000
v 12.6000 0.1800 6.2000
v 12.6000 3.0300 6.2000
v 8.9000 3.0300 6.2000
v 8.9000 0.1800 6.4000
v 12.6000 0.1800 6.4000
v 12.6000 3.0300 6.4000
v 8.9000 3.0300 6.4000
v 8.9000 0.1800 8.6000
v 12.6000 0.1800 8.6000
v 12.6000 3.0300 8.6000
v 8.9000 3.0300 8.6000
v 8.9000 0.1800 8.8000
v 12.6000 0.1800 8.8000
v 12.6000 3.0300 8.8000
v 8.9000 3.0300 8.8000
v 8.9000 0.1800 6.4000
v 9.1000 0.1800 6.4000
v 9.1000 3.0300 6.4000
v 8.9000 3.0300 6.4000
v 8.9000 0.1800 8.6000
v 9.1000 0.1800 8.6000
v 9.1000 3.0300 8.6000
v 8.9000 3.0300 8.6000
v 12.4000 0.1800 6.4000
v 12.6000 0.1800 6.4000
v 12.6000 3.0300 6.4000
v 12.4000 3.0300 6.4000
v 12.4000 0.1800 8.6000
v 12.6000 0.1800 8.6000
v 12.6000 3.0300 8.6000
v 12.4000 3.0300 8.6000
v 8.9000 0.1500 0.2000
v 12.6000 0.1500 0.2000
v 12.6000 0.1800 0.2000
v 8.9000 0.1800 0.2000
v 8.9000 0.1500 3.6000
v 12.6000 0.1500 3.6000
v 12.6000 0.1800 3.6000
v 8.9000 0.1800 3.6000
v 8.9000 0.1800 0.2000
v 12.6000 0.1800 0.2000
v 12.6000 3.0300 0.2000
v 8.9000 3.0300 0.2000
v 8.9000 0.1800 0.4000
v 12.6000 0.1800 0.4000
v 12.6000 3.0300 0.4000
v 8.9000 3.0300 0.4000
v 8.9000 0.1800 3.4000
v 12.6000 0.1800 3.4000
v 12.6000 3.0300 3.4000
v 8.9000 3.0300 3.4000
v 8.9000 0.1800 3.6000
v 12.6000 0.1800 3.6000
v 12.6000 3.0300 3.6000
v 8.9000 3.0300 3.6000
v 8.9000 0.1800 0.4000
v 9.1000 0.1800 0.4000
v 9.1000 3.0300 0.4000
v 8.9000 3.0300 0.4000
v 8.9000 0.1800 3.4000
v 9.1000 0.1800 3.4000
v 9.1000 3.0300 3.4000
v 8.9000 3.0300 3.4000
v 12.4000 0.1800 0.4000
v 12.6000 0.1800 0.4000
v 12.6000 3.0300 0.4000
v 12.4000 3.0300 0.4000
v 12.4000 0.1800 3.4000
v 12.6000 0.1800 3.4000
v 12.6000 3.0300 3.4000
v 12.4000 3.0300 3.4000
v 0.2000 0.1500 5.8000
v 3.8000 0.1500 5.8000
v 3.8000 0.1800 5.8000
v 0.2000 0.1800 5.8000
v 0.2000 0.1500 8.8000
v 3.8000 0.1500 8.8000
v 3.8000 0.1800 8.8000
v 0.2000 0.1800 8.8000
v 0.2000 0.1800 5.8000
v 3.8000 0.1800 5.8000
v 3.8000 3.0300 5.8000
v 0.2000 3.0300 5.8000
v 0.2000 0.1800 6.0000
v 3.8000 0.1800 6.0000
v 3.8000 3.0300 6.0000
v 0.2000 3.0300 6.0000
v 0.2000 0.1800 8.6000
v 3.8000 0.1800 8.6000
v 3.8000 3.0300 8.6000
v 0.2000 3.0300 8.6000
v 0.2000 0.1800 8.8000
v 3.8000 0.1800 8.8000
v 3.8000 3.0300 8.8000
v 0.2000 3.0300 8.8000
v 0.2000 0.1800 6.0000
v 0.4000 0.1800 6.0000
v 0.4000 3.0300 6.0000
v 0.2000 3.0300 6.0000
v 0.2000 0.1800 8.6000
v 0.4000 0.1800 8.6000
v 0.4000 3.0300 8.6000
v 0.2000 3.0300 8.6000
v 3.6000 0.1800 6.0000
v 3.8000 0.1800 6.0000
v 3.8000 3.0300 6.0000
v 3.6000 3.0300 6.0000
v 3.6000 0.1800 8.6000
v 3.8000 0.1800 8.6000
v 3.8000 3.0300 8.6000
v 3.6000 3.0300 8.6000
v 4.0000 0.1500 0.2000
v 7.5000 0.1500 0.2000
v 7.5000 0.1800 0.2000
v 4.0000 0.1800 0.2000
v 4.0000 0.1500 2.4000
v 7.5000 0.1500 2.4000
v 7.5000 0.1800 2.4000
v 4.0000 0.1800 2.4000
v 4.0000 0.1800 0.2000
v 7.5000 0.1800 0.2000
v 7.5000 3.0300 0.2000
v 4.0000 3.0300 0.2000
v 4.0000 0.1800 0.4000
v 7.5000 0.1800 0.4000
v 7.5000 3.0300 0.4000
v 4.0000 3.0300 0.4000
v 4.0000 0.1800 2.2000
v 7.5000 0.1800 2.2000
v 7.5000 3.0300 2.2000
v 4.0000 3.0300 2.2000
v 4.0000 0.1800 2.4000
v 7.5000 0.1800 2.4000
v 7.5000 3.0300 2.4000
v 4.0000 3.0300 2.4000
v 4.0000 0.1800 0.4000
v 4.2000 0.1800 0.4000
v 4.2000 3.0300 0.4000
v 4.0000 3.0300 0.4000
v 4.0000 0.1800 2.2000
v 4.2000 0.1800 2.2000
v 4.2000 3.0300 2.2000
v 4.0000 3.0300 2.2000
v 7.3000 0.1800 0.4000
v 7.5000 0.1800 0.4000
v 7.5000 3.0300 0.4000
v 7.3000 3.0300 0.4000
v 7.3000 0.1800 2.2000
v 7.5000 0.1800 2.2000
v 7.5000 3.0300 2.2000
v 7.3000 3.0300 2.2000
v 0.2000 0.1500 0.2000
v 3.8000 0.1500 0.2000
v 3.8000 0.1800 0.2000
v 0.2000 0.1800 0.2000
v 0.2000 0.1500 3.4000
v 3.8000 0.1500 3.4000
v 3.8000 0.1800 3.4000
v 0.2000 0.1800 3.4000
v 0.2000 0.1800 0.2000
v 3.8000 0.1800 0.2000
v 3.8000 3.0300 0.2000
v 0.2000 3.0300 0.2000
v 0.2000 0.1800 0.4000
v 3.8000 0.1800 0.4000
v 3.8000 3.0300 0.4000
v 0.2000 3.0300 0.4000
v 0.2000 0.1800 3.2000
v 3.8000 0.1800 3.2000
v 3.8000 3.0300 3.2000
v 0.2000 3.0300 3.2000
v 0.2000 0.1800 3.4000
v 3.8000 0.1800 3.4000
v 3.8000 3.0300 3.4000
v 0.2000 3.0300 3.4000
v 0.2000 0.1800 0.4000
v 0.4000 0.1800 0.4000
v 0.4000 3.0300 0.4000
v 0.2000 3.0300 0.4000
v 0.2000 0.1800 3.2000
v 0.4000 0.1800 3.2000
v 0.4000 3.0300 3.2000
v 0.2000 3.0300 3.2000
v 3.6000 0.1800 0.4000
v 3.8000 0.1800 0.4000
v 3.8000 3.0300 0.4000
v 3.6000 3.0300 0.4000
v 3.6000 0.1800 3.2000
v 3.8000 0.1800 3.2000
v 3.8000 3.0300 3.2000
v 3.6000 3.0300 3.2000
v 0.2000 0.1500 3.5000
v 3.8000 0.1500 3.5000
v 3.8000 0.1800 3.5000
v 0.2000 0.1800 3.5000
v 0.2000 0.1500 5.7000
v 3.8000 0.1500 5.7000
v 3.8000 0.1800 5.7000
v 0.2000 0.1800 5.7000
v 0.2000 0.1800 3.5000
v 3.8000 0.1800 3.5000
v 3.8000 3.0300 3.5000
v 0.2000 3.0300 3.5000
v 0.2000 0.1800 3.7000
v 3.8000 0.1800 3.7000
v 3.8000 3.0300 3.7000
v 0.2000 3.0300 3.7000
v 0.2000 0.1800 5.5000
v 3.8000 0.1800 5.5000
v 3.8000 3.0300 5.5000
v 0.2000 3.0300 5.5000
v 0.2000 0.1800 5.7000
v 3.8000 0.1800 5.7000
v 3.8000 3.0300 5.7000
v 0.2000 3.0300 5.7000
v 0.2000 0.1800 3.7000
v 0.4000 0.1800 3.7000
v 0.4000 3.0300 3.7000
v 0.2000 3.0300 3.7000
v 0.2000 0.1800 5.5000
v 0.4000 0.1800 5.5000
v 0.4000 3.0300 5.5000
v 0.2000 3.0300 5.5000
v 3.6000 0.1800 3.7000
v 3.8000 0.1800 3.7000
v 3.8000 3.0300 3.7000
v 3.6000 3.0300 3.7000
v 3.6000 0.1800 5.5000
v 3.8000 0.1800 5.5000
v 3.8000 3.0300 5.5000
v 3.6000 3.0300 5.5000
v -0.4000 3.0300 -0.4000
v 13.2000 3.0300 -0.4000
v 13.2000 3.1800 -0.4000
v -0.4000 3.1800 -0.4000
v -0.4000 3.0300 9.4000
v 13.2000 3.0300 9.4000
v 13.2000 3.1800 9.4000
v -0.4000 3.1800 9.4000
f 1 2 3 4
f 6 5 8 7
f 5 1 4 8
f 2 6 7 3
f 4 3 7 8
f 5 6 2 1
f 9 10 11 12
f 14 13 16 15
f 13 9 12 16
f 10 14 15 11
f 12 11 15 16
f 13 14 10 9
f 17 18 19 20
f 22 21 24 23
f 21 17 20 24
f 18 22 23 19
f 20 19 23 24
f 21 22 18 17
f 25 26 27 28
f 30 29 32 31
f 29 25 28 32
f 26 30 31 27
f 28 27 31 32
f 29 30 26 25
f 33 34 35 36
f 38 37 40 39
f 37 33 36 40
f 34 38 39 35
f 36 35 39 40
f 37 38 34 33
f 41 42 43 44
f 46 45 48 47
f 45 41 44 48
f 42 46 47 43
f 44 43 47 48
f 45 46 42 41
f 49 50 51 52
f 54 53 56 55
f 53 49 52 56
f 50 54 55 51
f 52 51 55 56
f 53 54 50 49
f 57 58 59 60
f 62 61 64 63
f 61 57 60 64
f 58 62 63 59
f 60 59 63 64
f 61 62 58 57
f 65 66 67 68
f 70 69 72 71
f 69 65 68 72
f 66 70 71 67
f 68 67 71 72
f 69 70 66 65
f 73 74 75 76
f 78 77 80 79
f 77 73 76 80
f 74 78 79 75
f 76 75 79 80
f 77 78 74 73
f 81 82 83 84
f 86 85 88 87
f 85 81 84 88
f 82 86 87 83
f 84 83 87 88
f 85 86 82 81
f 89 90 91 92
f 94 93 96 95
f 93 89 92 96
f 90 94 95 91
f 92 91 95 96
f 93 94 90 89
f 97 98 99 100
f 102 101 104 103
f 101 97 100 104
f 98 102 103 99
f 100 99 103 104
f 101 102 98 97
f 105 106 107 108
f 110 109 112 111
f 109 105 108 112
f 106 110 111 107
f 108 107 111 112
f 109 110 106 105
f 113 114 115 116
f 118 117 120 119
f 117 113 116 120
f 114 118 119 115
f 116 115 119 120
f 117 118 114 113
f 121 122 123 124
f 126 125 128 127
f 125 121 124 128
f 122 126 127 123
f 124 123 127 128
f 125 126 122 121
f 129 130 131 132
f 134 133 136 135
f 133 129 132 136
f 130 134 135 131
f 132 131 135 136
f 133 134 130 129
f 137 138 139 140
f 142 141 144 143
f 141 137 140 144
f 138 142 143 139
f 140 139 143 144
f 141 142 138 137
f 145 146 147 148
f 150 149 152 151
f 149 145 148 152
f 146 150 151 147
f 148 147 151 152
f 149 150 146 145
f 153 154 155 156
f 158 157 160 159
f 157 153 156 160
f 154 158 159 155
f 156 155 159 160
f 157 158 154 153
f 161 162 163 164
f 166 165 168 167
f 165 161 164 168
f 162 166 167 163
f 164 163 167 168
f 165 166 162 161
f 169 170 171 172
f 174 173 176 175
f 173 169 172 176
f 170 174 175 171
f 172 171 175 176
f 173 174 170 169
f 177 178 179 180
f 182 181 184 183
f 181 177 180 184
f 178 182 183 179
f 180 179 183 184
f 181 182 178 177
f 185 186 187 188
f 190 189 192 191
f 189 185 188 192
f 186 190 191 187
f 188 187 191 192
f 189 190 186 185
f 193 194 195 196
f 198 197 200 199
f 197 193 196 200
f 194 198 199 195
f 196 195 199 200
f 197 198 194 193
f 201 202 203 204
f 206 205 208 207
f 205 201 204 208
f 202 206 207 203
f 204 203 207 208
f 205 206 202 201
f 209 210 211 212
f 214 213 216 215
f 213 209 212 216
f 210 214 215 211
f 212 211 215 216
f 213 214 210 209
f 217 218 219 220
f 222 221 224 223
f 221 217 220 224
f 218 222 223 219
f 220 219 223 224
f 221 222 218 217
f 225 226 227 228
f 230 229 232 231
f 229 225 228 232
f 226 230 231 227
f 228 227 231 232
f 229 230 226 225
f 233 234 235 236
f 238 237 240 239
f 237 233 236 240
f 234 238 239 235
f 236 235 239 240
f 237 238 234 233
f 241 242 243 244
f 246 245 248 247
f 245 241 244 248
f 242 246 247 243
f 244 243 247 248
f 245 246 242 241
f 249 250 251 252
f 254 253 256 255
f 253 249 252 256
f 250 254 255 251
f 252 251 255 256
f 253 254 250 249
f 257 258 259 260
f 262 261 264 263
f 261 257 260 264
f 258 262 263 259
f 260 259 263 264
f 261 262 258 257
f 265 266 267 268
f 270 269 272 271
f 269 265 268 272
f 266 270 271 267
f 268 267 271 272
f 269 270 266 265
f 273 274 275 276
f 278 277 280 279
f 277 273 276 280
f 274 278 279 275
f 276 275 279 280
f 277 278 274 273
f 281 282 283 284
f 286 285 288 287
f 285 281 284 288
f 282 286 287 283
f 284 283 287 288
f 285 286 282 281
f 289 290 291 292
f 294 293 296 295
f 293 289 292 296
f 290 294 295 291
f 292 291 295 296
f 293 294 290 289
f 297 298 299 300
f 302 301 304 303
f 301 297 300 304
f 298 302 303 299
f 300 299 303 304
f 301 302 298 297
f 305 306 307 308
f 310 309 312 311
f 309 305 308 312
f 306 310 311 307
f 308 307 311 312
f 309 310 306 305
f 313 314 315 316
f 318 317 320 319
f 317 313 316 320
f 314 318 319 315
f 316 315 319 320
f 317 318 314 313
f 321 322 323 324
f 326 325 328 327
f 325 321 324 328
f 322 326 327 323
f 324 323 327 328
f 325 326 322 321
f 329 330 331 332
f 334 333 336 335
f 333 329 332 336
f 330 334 335 331
f 332 331 335 336
f 333 334 330 329
