0
SECTION
2
HEADER
9
$ACADVER
1
AC1009
0
ENDSEC
0
SECTION
2
ENTITIES
0
POLYLINE
8
WALLS
66
1
70
1
0
VERTEX
8
WALLS
10
0.0
20
0.0
30
0.0
0
VERTEX
8
WALLS
10
13200.0
20
0.0
30
0.0
0
VERTEX
8
WALLS
10
13200.0
20
8400.0
30
0.0
0
VERTEX
8
WALLS
10
0.0
20
8400.0
30
0.0
0
SEQEND
0
POLYLINE
8
ROOMS
66
1
70
1
0
VERTEX
8
ROOMS
10
0.0
20
0.0
30
0.0
0
VERTEX
8
ROOMS
10
5200.0
20
0.0
30
0.0
0
VERTEX
8
ROOMS
10
5200.0
20
4800.0
30
0.0
0
VERTEX
8
ROOMS
10
0.0
20
4800.0
30
0.0
0
SEQEND
0
TEXT
8
ROOM_NAMES
10
1600.0
20
2400.0
30
0.0
40
250
1
Living
0
POLYLINE
8
ROOMS
66
1
70
1
0
VERTEX
8
ROOMS
10
5200.0
20
0.0
30
0.0
0
VERTEX
8
ROOMS
10
9200.0
20
0.0
30
0.0
0
VERTEX
8
ROOMS
10
9200.0
20
4800.0
30
0.0
0
VERTEX
8
ROOMS
10
5200.0
20
4800.0
30
0.0
0
SEQEND
0
TEXT
8
ROOM_NAMES
10
6200.0
20
2400.0
30
0.0
40
250
1
Main bedroom
0
POLYLINE
8
ROOMS
66
1
70
1
0
VERTEX
8
ROOMS
10
9200.0
20
0.0
30
0.0
0
VERTEX
8
ROOMS
10
13200.0
20
0.0
30
0.0
0
VERTEX
8
ROOMS
10
13200.0
20
4800.0
30
0.0
0
VERTEX
8
ROOMS
10
9200.0
20
4800.0
30
0.0
0
SEQEND
0
TEXT
8
ROOM_NAMES
10
10200.0
20
2400.0
30
0.0
40
250
1
Bedroom 2
0
POLYLINE
8
ROOMS
66
1
70
1
0
VERTEX
8
ROOMS
10
0.0
20
4800.0
30
0.0
0
VERTEX
8
ROOMS
10
4400.0
20
4800.0
30
0.0
0
VERTEX
8
ROOMS
10
4400.0
20
8400.0
30
0.0
0
VERTEX
8
ROOMS
10
0.0
20
8400.0
30
0.0
0
SEQEND
0
TEXT
8
ROOM_NAMES
10
1200.0
20
6600.0
30
0.0
40
250
1
Kitchen
0
POLYLINE
8
ROOMS
66
1
70
1
0
VERTEX
8
ROOMS
10
4400.0
20
4800.0
30
0.0
0
VERTEX
8
ROOMS
10
8200.0
20
4800.0
30
0.0
0
VERTEX
8
ROOMS
10
8200.0
20
8400.0
30
0.0
0
VERTEX
8
ROOMS
10
4400.0
20
8400.0
30
0.0
0
SEQEND
0
TEXT
8
ROOM_NAMES
10
5300.0
20
6600.0
30
0.0
40
250
1
Store
0
POLYLINE
8
ROOMS
66
1
70
1
0
VERTEX
8
ROOMS
10
8200.0
20
4800.0
30
0.0
0
VERTEX
8
ROOMS
10
10400.0
20
4800.0
30
0.0
0
VERTEX
8
ROOMS
10
10400.0
20
8400.0
30
0.0
0
VERTEX
8
ROOMS
10
8200.0
20
8400.0
30
0.0
0
SEQEND
0
TEXT
8
ROOM_NAMES
10
8300.0
20
6600.0
30
0.0
40
250
1
Bath
0
POLYLINE
8
ROOMS
66
1
70
1
0
VERTEX
8
ROOMS
10
10400.0
20
4800.0
30
0.0
0
VERTEX
8
ROOMS
10
13200.0
20
4800.0
30
0.0
0
VERTEX
8
ROOMS
10
13200.0
20
8400.0
30
0.0
0
VERTEX
8
ROOMS
10
10400.0
20
8400.0
30
0.0
0
SEQEND
0
TEXT
8
ROOM_NAMES
10
10800.0
20
6600.0
30
0.0
40
250
1
Entrance airlock
0
ENDSEC
0
EOF
