<?xml version="1.0" encoding="UTF-8"?>
<svg xmlns="http://www.w3.org/2000/svg" width="1096" height="808" viewBox="0 0 1096 808">
  <rect width="100%" height="100%" fill="#faf8f5"/>
  <text x="548.0" y="28" text-anchor="middle" font-size="16" font-weight="bold">Corner Plot West-Facing Bungalow</text>
  <text x="548.0" y="46" text-anchor="middle" font-size="11" fill="#555">
    18m × 14m · Facing W · Vastu 89/100 (Excellent)
  </text>
  <rect x="70" y="120" width="756" height="588" fill="#fff" stroke="#222" stroke-width="2"/><rect x="82.6" y="131.76" width="365.4" height="270.48" fill="#bdbdbd" fill-opacity="0.25" stroke="#555" stroke-width="1.5"/><text x="265.29999999999995" y="145.76" text-anchor="middle" font-size="11" font-weight="bold">Living Room</text><text x="265.29999999999995" y="157.76" text-anchor="middle" font-size="8" fill="#444">8.7×6.4m · — · oak_parquet</text><g transform="translate(227.5,284.64) rotate(0)"><rect x="-46.2" y="-19.95" width="92.4" height="39.9" fill="rgb(114,89,71)" fill-opacity="0.9" stroke="#222" stroke-width="0.8" rx="2"/><text x="0" y="3" text-anchor="middle" font-size="7" fill="#f5f5f5" font-weight="600">Sofa</text></g><g transform="translate(227.5,225.84) rotate(0)"><rect x="-23.1" y="-12.6" width="46.2" height="25.2" fill="rgb(89,56,30)" fill-opacity="0.9" stroke="#222" stroke-width="0.8" rx="2"/><text x="0" y="3" text-anchor="middle" font-size="7" fill="#f5f5f5" font-weight="600">Coffee</text></g><g transform="translate(227.5,155.28) rotate(0)"><rect x="-37.800000000000004" y="-9.450000000000001" width="75.60000000000001" height="18.900000000000002" fill="rgb(38,30,25)" fill-opacity="0.9" stroke="#222" stroke-width="0.8" rx="2"/><text x="0" y="3" text-anchor="middle" font-size="7" fill="#f5f5f5" font-weight="600">TV</text></g><g transform="translate(120.4,343.44) rotate(0)"><rect x="-7.35" y="-7.35" width="14.7" height="14.7" fill="rgb(216,191,89)" fill-opacity="0.9" stroke="#222" stroke-width="0.8" rx="2"/></g><g transform="translate(397.59999999999997,149.4) rotate(0)"><rect x="-9.450000000000001" y="-9.450000000000001" width="18.900000000000002" height="18.900000000000002" fill="rgb(51,140,63)" fill-opacity="0.9" stroke="#222" stroke-width="0.8" rx="2"/></g><rect x="208.6" y="131.76" width="151.20000000000002" height="4" fill="#4fc3f7" stroke="#0288d1"/><rect x="460.6" y="131.76" width="151.20000000000002" height="129.36" fill="#bdbdbd" fill-opacity="0.25" stroke="#555" stroke-width="1.5"/><text x="536.2" y="145.76" text-anchor="middle" font-size="11" font-weight="bold">Pooja Room</text><text x="536.2" y="157.76" text-anchor="middle" font-size="8" fill="#444">3.6×3.1m · — · marble_white</text><g transform="translate(536.2,155.28) rotate(0)"><rect x="-21.0" y="-9.450000000000001" width="42.0" height="18.900000000000002" fill="rgb(183,132,45)" fill-opacity="0.9" stroke="#222" stroke-width="0.8" rx="2"/><text x="0" y="3" text-anchor="middle" font-size="7" fill="#1a1a1a" font-weight="600">Pooja Mandir</text></g><g transform="translate(536.2,196.44) rotate(0)"><rect x="-8.82" y="-8.82" width="17.64" height="17.64" fill="rgb(249,244,234)" fill-opacity="0.9" stroke="#222" stroke-width="0.8" rx="2"/></g><rect x="637.0" y="131.76" width="176.4" height="235.2" fill="#66bb6a" fill-opacity="0.25" stroke="#555" stroke-width="1.5"/><text x="725.2" y="145.76" text-anchor="middle" font-size="11" font-weight="bold">Kitchen</text><text x="725.2" y="157.76" text-anchor="middle" font-size="8" fill="#444">4.2×5.6m · SE · ceramic_tile</text><text x="725.2" y="167.76" text-anchor="middle" font-size="7" fill="#666">Vastu: Kitchen (good)</text><g transform="translate(725.1999999999999,149.4) rotate(90)"><rect x="-50.4" y="-13.02" width="100.8" height="26.04" fill="rgb(191,191,186)" fill-opacity="0.9" stroke="#222" stroke-width="0.8" rx="2"/><text x="0" y="3" text-anchor="middle" font-size="7" fill="#1a1a1a" font-weight="600">Kitchen</text></g><g transform="translate(725.1999999999999,190.56) rotate(90)"><rect x="-12.6" y="-11.55" width="25.2" height="23.1" fill="rgb(51,51,51)" fill-opacity="0.9" stroke="#222" stroke-width="0.8" rx="2"/><text x="0" y="3" text-anchor="middle" font-size="6" fill="#f5f5f5" font-weight="600">Stov</text></g><g transform="translate(775.6,325.8) rotate(0)"><rect x="-14.7" y="-13.65" width="29.4" height="27.3" fill="rgb(234,234,239)" fill-opacity="0.9" stroke="#222" stroke-width="0.8" rx="2"/><text x="0" y="3" text-anchor="middle" font-size="6" fill="#1a1a1a" font-weight="600">Fridge</text></g><g transform="translate(687.4,284.64) rotate(0)"><rect x="-25.2" y="-15.75" width="50.4" height="31.5" fill="rgb(102,71,45)" fill-opacity="0.9" stroke="#222" stroke-width="0.8" rx="2"/><text x="0" y="3" text-anchor="middle" font-size="7" fill="#f5f5f5" font-weight="600">Dining Table</text></g><g transform="translate(687.4,249.36) rotate(0)"><rect x="-9.450000000000001" y="-9.450000000000001" width="18.900000000000002" height="18.900000000000002" fill="rgb(127,96,71)" fill-opacity="0.9" stroke="#222" stroke-width="0.8" rx="2"/></g><g transform="translate(750.4,284.64) rotate(90)"><rect x="-9.450000000000001" y="-9.450000000000001" width="18.900000000000002" height="18.900000000000002" fill="rgb(127,96,71)" fill-opacity="0.9" stroke="#222" stroke-width="0.8" rx="2"/></g><rect x="809.4" y="194.76" width="4" height="75.60000000000001" fill="#4fc3f7" stroke="#0288d1"/><rect x="82.6" y="425.76" width="302.40000000000003" height="270.48" fill="#2e7d32" fill-opacity="0.25" stroke="#555" stroke-width="1.5"/><text x="233.8" y="439.76" text-anchor="middle" font-size="11" font-weight="bold">Master Bedroom</text><text x="233.8" y="451.76" text-anchor="middle" font-size="8" fill="#444">7.2×6.4m · SW · oak_parquet</text><text x="233.8" y="461.76" text-anchor="middle" font-size="7" fill="#666">Vastu: Master Bedroom (best)</text><g transform="translate(227.5,543.36) rotate(0)"><rect x="-42.0" y="-33.6" width="84.0" height="67.2" fill="rgb(140,122,158)" fill-opacity="0.9" stroke="#222" stroke-width="0.8" rx="2"/><text x="0" y="3" text-anchor="middle" font-size="7" fill="#f5f5f5" font-weight="600">Double Bed</text></g><g transform="translate(107.80000000000001,531.6) rotate(90)"><rect x="-12.6" y="-37.800000000000004" width="25.2" height="75.60000000000001" fill="rgb(81,61,45)" fill-opacity="0.9" stroke="#222" stroke-width="0.8" rx="2"/><text x="0" y="3" text-anchor="middle" font-size="6" fill="#f5f5f5" font-weight="600">Ward</text></g><g transform="translate(133.0,619.8) rotate(0)"><rect x="-10.5" y="-8.4" width="21.0" height="16.8" fill="rgb(96,71,45)" fill-opacity="0.9" stroke="#222" stroke-width="0.8" rx="2"/><text x="0" y="3" text-anchor="middle" font-size="6" fill="#f5f5f5" font-weight="600">Side</text></g><g transform="translate(322.0,619.8) rotate(0)"><rect x="-10.5" y="-8.4" width="21.0" height="16.8" fill="rgb(96,71,45)" fill-opacity="0.9" stroke="#222" stroke-width="0.8" rx="2"/><text x="0" y="3" text-anchor="middle" font-size="6" fill="#f5f5f5" font-weight="600">Side</text></g><g transform="translate(227.5,561.0) rotate(0)"><rect x="-8.82" y="-8.82" width="17.64" height="17.64" fill="rgb(249,244,234)" fill-opacity="0.9" stroke="#222" stroke-width="0.8" rx="2"/></g><rect x="82.6" y="520.26" width="4" height="113.4" fill="#4fc3f7" stroke="#0288d1"/><rect x="397.59999999999997" y="425.76" width="176.4" height="270.48" fill="#bdbdbd" fill-opacity="0.25" stroke="#555" stroke-width="1.5"/><text x="485.79999999999995" y="439.76" text-anchor="middle" font-size="11" font-weight="bold">Kids Bedroom</text><text x="485.79999999999995" y="451.76" text-anchor="middle" font-size="8" fill="#444">4.2×6.4m · — · laminate_warm</text><g transform="translate(460.6,531.6) rotate(0)"><rect x="-21.0" y="-39.9" width="42.0" height="79.8" fill="rgb(122,147,183)" fill-opacity="0.9" stroke="#222" stroke-width="0.8" rx="2"/><text x="0" y="3" text-anchor="middle" font-size="7" fill="#1a1a1a" font-weight="600">Single Bed</text></g><g transform="translate(523.6,461.03999999999996) rotate(0)"><rect x="-25.2" y="-12.6" width="50.4" height="25.2" fill="rgb(107,81,56)" fill-opacity="0.9" stroke="#222" stroke-width="0.8" rx="2"/><text x="0" y="3" text-anchor="middle" font-size="7" fill="#f5f5f5" font-weight="600">Study Desk</text></g><g transform="translate(416.5,449.28) rotate(90)"><rect x="-7.35" y="-21.0" width="14.7" height="42.0" fill="rgb(89,63,38)" fill-opacity="0.9" stroke="#222" stroke-width="0.8" rx="2"/></g><g transform="translate(542.5,619.8) rotate(0)"><rect x="-16.8" y="-10.5" width="33.6" height="21.0" fill="rgb(216,140,63)" fill-opacity="0.9" stroke="#222" stroke-width="0.8" rx="2"/><text x="0" y="3" text-anchor="middle" font-size="6" fill="#1a1a1a" font-weight="600">Toy Chest</text></g><rect x="447.99999999999994" y="425.76" width="88.2" height="4" fill="#4fc3f7" stroke="#0288d1"/><rect x="586.6" y="425.76" width="113.4" height="141.12" fill="#bdbdbd" fill-opacity="0.25" stroke="#555" stroke-width="1.5"/><text x="643.3000000000001" y="439.76" text-anchor="middle" font-size="11" font-weight="bold">Study</text><text x="643.3000000000001" y="451.76" text-anchor="middle" font-size="8" fill="#444">2.7×3.4m · — · oak_parquet</text><g transform="translate(637.0,472.8) rotate(0)"><rect x="-25.2" y="-12.6" width="50.4" height="25.2" fill="rgb(107,81,56)" fill-opacity="0.9" stroke="#222" stroke-width="0.8" rx="2"/><text x="0" y="3" text-anchor="middle" font-size="7" fill="#f5f5f5" font-weight="600">Study Desk</text></g><g transform="translate(637.0,519.8399999999999) rotate(180)"><rect x="-11.55" y="-11.55" width="23.1" height="23.1" fill="rgb(45,45,56)" fill-opacity="0.9" stroke="#222" stroke-width="0.8" rx="2"/><text x="0" y="3" text-anchor="middle" font-size="6" fill="#f5f5f5" font-weight="600">Offi</text></g><g transform="translate(605.5,443.40000000000003) rotate(90)"><rect x="-7.35" y="-21.0" width="14.7" height="42.0" fill="rgb(89,63,38)" fill-opacity="0.9" stroke="#222" stroke-width="0.8" rx="2"/></g><rect x="712.6" y="425.76" width="100.8" height="141.12" fill="#66bb6a" fill-opacity="0.25" stroke="#555" stroke-width="1.5"/><text x="763.0" y="439.76" text-anchor="middle" font-size="11" font-weight="bold">Toilet</text><text x="763.0" y="451.76" text-anchor="middle" font-size="8" fill="#444">2.4×3.4m · ESE · ceramic_tile</text><text x="763.0" y="461.76" text-anchor="middle" font-size="7" fill="#666">Vastu: Toilets (good)</text><g transform="translate(750.4,519.8399999999999) rotate(0)"><rect x="-8.4" y="-13.65" width="16.8" height="27.3" fill="rgb(242,242,247)" fill-opacity="0.9" stroke="#222" stroke-width="0.8" rx="2"/></g><g transform="translate(775.6,449.28) rotate(0)"><rect x="-11.55" y="-9.450000000000001" width="23.1" height="18.900000000000002" fill="rgb(229,229,234)" fill-opacity="0.9" stroke="#222" stroke-width="0.8" rx="2"/><text x="0" y="3" text-anchor="middle" font-size="6" fill="#1a1a1a" font-weight="600">Sink</text></g><rect x="586.6" y="578.64" width="226.8" height="117.6" fill="#2e7d32" fill-opacity="0.25" stroke="#555" stroke-width="1.5"/><text x="700.0" y="592.64" text-anchor="middle" font-size="11" font-weight="bold">Main Entrance</text><text x="700.0" y="604.64" text-anchor="middle" font-size="8" fill="#444">5.4×2.8m · W · marble_cream</text><text x="700.0" y="614.64" text-anchor="middle" font-size="7" fill="#666">Vastu: Entrance (best)</text><g transform="translate(611.8000000000001,660.96) rotate(0)"><rect x="-21.0" y="-7.35" width="42.0" height="14.7" fill="rgb(76,56,38)" fill-opacity="0.9" stroke="#222" stroke-width="0.8" rx="2"/><text x="0" y="3" text-anchor="middle" font-size="7" fill="#f5f5f5" font-weight="600">Shoe</text></g><g transform="translate(700.0,613.9200000000001) rotate(0)"><rect x="-25.2" y="-8.4" width="50.4" height="16.8" fill="rgb(96,71,45)" fill-opacity="0.9" stroke="#222" stroke-width="0.8" rx="2"/><text x="0" y="3" text-anchor="middle" font-size="7" fill="#f5f5f5" font-weight="600">Cons</text></g><g transform="translate(775.6,590.4) rotate(0)"><rect x="-9.450000000000001" y="-9.450000000000001" width="18.900000000000002" height="18.900000000000002" fill="rgb(51,140,63)" fill-opacity="0.9" stroke="#222" stroke-width="0.8" rx="2"/></g><g transform="translate(128.9,150)"><circle r="28" fill="none" stroke="#333" stroke-width="1.5"/><text x="1.3471114790620886e-15" y="-18.0" text-anchor="middle" font-size="11" font-weight="bold">N</text><text x="22.0" y="4.0" text-anchor="middle" font-size="11" font-weight="bold">E</text><text x="1.3471114790620886e-15" y="26.0" text-anchor="middle" font-size="11" font-weight="bold">S</text><text x="-22.0" y="4.000000000000003" text-anchor="middle" font-size="11" font-weight="bold">W</text></g><text x="113.9" y="200" font-size="12" font-weight="bold">Room Inventory</text><text x="113.9" y="216" font-size="9" font-weight="bold" fill="#8b4513">Living Room</text><text x="117.9" y="228" font-size="8" fill="#333">• Sofa</text><text x="117.9" y="239" font-size="8" fill="#333">• Coffee Table</text><text x="117.9" y="250" font-size="8" fill="#333">• TV Unit</text><text x="117.9" y="261" font-size="8" fill="#333">• Lamp</text><text x="117.9" y="272" font-size="8" fill="#333">• Plant</text><text x="113.9" y="287" font-size="9" font-weight="bold" fill="#8b4513">Pooja Room</text><text x="117.9" y="299" font-size="8" fill="#333">• Pooja Mandir</text><text x="117.9" y="310" font-size="8" fill="#333">• Light</text><text x="113.9" y="325" font-size="9" font-weight="bold" fill="#8b4513">Kitchen</text><text x="117.9" y="337" font-size="8" fill="#333">• Kitchen Counter</text><text x="117.9" y="348" font-size="8" fill="#333">• Stove</text><text x="117.9" y="359" font-size="8" fill="#333">• Fridge</text><text x="117.9" y="370" font-size="8" fill="#333">• Dining Table</text><text x="117.9" y="381" font-size="8" fill="#333">• Chair</text><text x="117.9" y="392" font-size="8" fill="#333">• Chair</text><text x="113.9" y="407" font-size="9" font-weight="bold" fill="#8b4513">Master Bedroom</text><text x="117.9" y="419" font-size="8" fill="#333">• Double Bed</text><text x="117.9" y="430" font-size="8" fill="#333">• Wardrobe</text><text x="117.9" y="441" font-size="8" fill="#333">• Side Table</text><text x="117.9" y="452" font-size="8" fill="#333">• Side Table</text><text x="117.9" y="463" font-size="8" fill="#333">• Light</text><text x="113.9" y="478" font-size="9" font-weight="bold" fill="#8b4513">Kids Bedroom</text><text x="117.9" y="490" font-size="8" fill="#333">• Single Bed</text><text x="117.9" y="501" font-size="8" fill="#333">• Study Desk</text><text x="117.9" y="512" font-size="8" fill="#333">• Bookshelf</text><text x="117.9" y="523" font-size="8" fill="#333">• Toy Chest</text><text x="113.9" y="538" font-size="9" font-weight="bold" fill="#8b4513">Study</text><text x="117.9" y="550" font-size="8" fill="#333">• Study Desk</text><text x="117.9" y="561" font-size="8" fill="#333">• Office Chair</text><text x="117.9" y="572" font-size="8" fill="#333">• Bookshelf</text><text x="113.9" y="587" font-size="9" font-weight="bold" fill="#8b4513">Toilet</text><text x="117.9" y="599" font-size="8" fill="#333">• Toilet</text><text x="117.9" y="610" font-size="8" fill="#333">• Sink</text><text x="113.9" y="625" font-size="9" font-weight="bold" fill="#8b4513">Main Entrance</text><text x="117.9" y="637" font-size="8" fill="#333">• Shoe Rack</text><text x="117.9" y="648" font-size="8" fill="#333">• Console</text><text x="117.9" y="659" font-size="8" fill="#333">• Plant</text>
</svg>